<?xml version="1.0" encoding="UTF-8" ?>
<!DOCTYPE svg PUBLIC "-//W3C//DTD SVG 1.1//EN" "http://www.w3.org/Graphics/SVG/1.1/DTD/svg11.dtd">
<svg width="702pt" height="702pt" viewBox="0 0 702 702" version="1.1" xmlns="http://www.w3.org/2000/svg">
<path fill="#ffffff" d=" M 0.00 0.00 L 702.00 0.00 L 702.00 702.00 L 0.00 702.00 L 0.00 0.00 Z" />
<path fill="#b0ca52" d=" M 462.98 42.87 C 479.28 26.87 503.46 12.73 526.01 17.96 C 523.40 17.99 520.81 18.05 518.23 18.16 C 500.45 17.67 485.73 30.33 473.41 41.67 C 469.87 42.66 466.48 45.96 462.98 42.87 Z" />
<path fill="#aabe28" d=" M 473.41 41.67 C 485.73 30.33 500.45 17.67 518.23 18.16 C 495.46 24.00 479.09 42.55 466.13 61.10 C 462.82 64.83 458.98 67.77 453.84 66.74 C 459.29 57.59 466.36 49.59 473.41 41.67 Z" />
<path fill="#899620" d=" M 518.23 18.16 C 520.81 18.05 523.40 17.99 526.01 17.96 C 542.00 20.08 555.26 31.73 565.11 43.87 C 564.95 44.17 564.62 44.77 564.46 45.07 C 554.62 35.11 542.41 25.89 528.27 23.66 C 525.06 23.18 521.80 22.61 518.65 23.58 C 498.81 27.39 485.73 44.91 476.56 61.63 C 467.83 75.35 461.70 91.30 453.97 105.09 C 448.37 104.15 443.02 103.71 440.80 109.91 C 447.46 92.79 456.91 76.94 466.13 61.10 C 479.09 42.55 495.46 24.00 518.23 18.16 Z" />
<path fill="#cbcd9f" d=" M 518.65 23.58 C 521.80 22.61 525.06 23.18 528.27 23.66 C 525.02 23.88 521.83 24.28 518.65 23.58 Z" />
<path fill="#9ebf4b" d=" M 462.98 42.87 C 466.48 45.96 469.87 42.66 473.41 41.67 C 466.36 49.59 459.29 57.59 453.84 66.74 C 443.63 81.06 434.87 96.33 427.30 112.18 C 422.37 110.99 417.28 110.91 412.25 111.08 C 425.75 86.22 442.76 62.72 462.98 42.87 Z" />
<path fill="#b5bb83" d=" M 565.11 43.87 C 567.10 45.34 568.45 47.72 569.10 50.10 C 567.52 48.69 564.30 47.16 564.46 45.07 C 564.62 44.77 564.95 44.17 565.11 43.87 Z" />
<path fill="#94b020" d=" M 453.84 66.74 C 458.98 67.77 462.82 64.83 466.13 61.10 C 456.91 76.94 447.46 92.79 440.80 109.91 C 431.10 129.80 424.46 151.02 416.88 171.78 C 413.19 178.50 410.50 185.70 407.67 192.81 C 404.70 192.40 402.00 190.98 399.12 190.23 C 397.00 193.84 395.64 197.88 393.10 201.23 C 402.00 170.66 414.00 141.08 427.30 112.18 C 434.87 96.33 443.63 81.06 453.84 66.74 Z" />
<path fill="#80971b" d=" M 440.80 109.91 C 443.02 103.71 448.37 104.15 453.97 105.09 C 438.84 142.76 425.50 182.24 415.27 220.89 C 413.86 217.18 407.96 219.11 405.16 217.99 C 392.14 254.13 386.82 292.73 375.38 329.33 C 368.30 327.33 366.58 333.20 365.07 338.19 C 365.38 332.49 366.33 326.86 367.28 321.24 C 368.82 316.09 370.36 309.61 377.75 311.72 C 388.33 279.74 393.51 246.09 404.01 214.00 C 407.34 199.65 413.97 186.19 416.88 171.78 C 424.46 151.02 431.10 129.80 440.80 109.91 Z" />
<path fill="#93b847" d=" M 412.25 111.08 C 417.28 110.91 422.37 110.99 427.30 112.18 C 414.00 141.08 402.00 170.66 393.10 201.23 C 387.26 220.18 381.96 239.31 377.79 258.70 C 375.39 262.12 374.08 266.17 371.60 269.54 C 366.06 268.87 361.46 272.10 358.13 276.10 C 368.81 219.14 383.83 161.97 412.25 111.08 Z" />
<path fill="#88a81c" d=" M 407.67 192.81 C 410.50 185.70 413.19 178.50 416.88 171.78 C 413.97 186.19 407.34 199.65 404.01 214.00 C 393.51 246.09 388.33 279.74 377.75 311.72 C 370.36 309.61 368.82 316.09 367.28 321.24 C 367.47 317.73 367.73 314.26 367.77 310.76 C 369.79 293.17 375.42 276.21 377.79 258.70 C 381.96 239.31 387.26 220.18 393.10 201.23 C 395.64 197.88 397.00 193.84 399.12 190.23 C 402.00 190.98 404.70 192.40 407.67 192.81 Z" />
<path fill="#779218" d=" M 405.16 217.99 C 407.96 219.11 413.86 217.18 415.27 220.89 C 409.67 245.58 403.51 270.21 399.80 295.28 L 399.37 294.66 C 397.59 288.40 391.84 293.03 391.32 297.46 C 389.38 300.76 384.97 302.07 384.05 306.04 C 380.29 318.89 377.90 332.13 373.89 344.91 C 373.16 348.35 368.93 347.74 366.29 348.31 C 364.92 350.08 364.20 352.23 363.15 354.19 C 363.06 353.60 362.88 352.41 362.79 351.82 C 363.26 347.24 363.75 342.62 365.07 338.19 C 366.58 333.20 368.30 327.33 375.38 329.33 C 386.82 292.73 392.14 254.13 405.16 217.99 Z" />
<path fill="#89ae38" d=" M 371.60 269.54 C 374.08 266.17 375.39 262.12 377.79 258.70 C 375.42 276.21 369.79 293.17 367.77 310.76 C 366.57 313.86 365.95 317.23 364.10 320.05 C 362.46 324.01 358.07 320.41 355.31 319.73 C 351.92 318.36 351.84 323.39 350.38 325.46 C 350.83 308.91 355.63 292.52 358.13 276.10 C 361.46 272.10 366.06 268.87 371.60 269.54 Z" />
<path fill="#6b8c15" d=" M 391.32 297.46 C 391.84 293.03 397.59 288.40 399.37 294.66 C 396.93 311.48 394.21 328.27 391.73 345.07 L 391.20 344.90 C 387.52 342.16 380.94 342.71 377.70 345.73 C 374.38 353.38 373.39 362.00 369.65 369.55 C 361.82 367.38 362.80 375.82 361.21 380.22 C 360.74 371.49 362.15 362.83 363.15 354.19 C 364.20 352.23 364.92 350.08 366.29 348.31 C 368.93 347.74 373.16 348.35 373.89 344.91 C 377.90 332.13 380.29 318.89 384.05 306.04 C 384.97 302.07 389.38 300.76 391.32 297.46 Z" />
<path fill="#78a331" d=" M 364.10 320.05 C 365.95 317.23 366.57 313.86 367.77 310.76 C 367.73 314.26 367.47 317.73 367.28 321.24 C 366.33 326.86 365.38 332.49 365.07 338.19 C 363.75 342.62 363.26 347.24 362.79 351.82 C 361.77 355.21 360.83 358.72 358.79 361.68 C 354.40 361.41 350.34 359.73 346.07 358.92 C 345.80 361.07 348.34 364.83 345.09 365.38 C 344.45 361.12 345.19 356.98 346.52 352.98 C 347.14 351.45 347.16 349.79 346.98 348.18 C 347.59 340.66 347.32 332.44 350.38 325.46 C 351.84 323.39 351.92 318.36 355.31 319.73 C 358.07 320.41 362.46 324.01 364.10 320.05 Z" />
<path fill="#b2c329" d=" M 450.11 334.95 C 456.16 328.99 462.84 322.78 471.06 319.87 C 426.60 371.03 413.00 440.20 406.72 505.74 C 406.29 508.77 405.93 511.91 405.99 515.00 C 405.99 516.90 406.04 518.82 405.67 520.70 C 405.38 522.10 405.12 523.50 404.91 524.92 C 402.48 527.30 399.03 527.73 396.10 529.16 C 393.71 533.35 392.08 537.92 389.82 542.19 C 384.10 536.69 376.74 534.53 369.65 531.78 C 373.39 512.47 376.63 492.99 382.17 474.09 L 383.04 473.56 C 385.30 482.35 380.79 490.99 381.07 499.85 C 384.04 504.14 387.78 507.99 391.96 511.12 C 406.40 456.71 408.72 396.94 440.65 348.65 C 443.53 343.91 447.79 340.04 450.11 334.95 Z" />
<path fill="#bccb2c" d=" M 384.75 468.87 C 398.07 421.12 415.01 371.33 450.11 334.95 C 447.79 340.04 443.53 343.91 440.65 348.65 C 408.72 396.94 406.40 456.71 391.96 511.12 C 387.78 507.99 384.04 504.14 381.07 499.85 C 380.79 490.99 385.30 482.35 383.04 473.56 C 383.63 472.00 384.27 470.46 384.75 468.87 Z" />
<path fill="#578510" d=" M 377.70 345.73 C 380.94 342.71 387.52 342.16 391.20 344.90 C 391.01 346.18 390.97 347.47 391.06 348.77 C 391.17 350.23 391.00 351.64 390.55 353.01 C 389.91 354.18 389.77 355.52 390.00 356.83 C 390.17 358.26 390.02 359.66 389.55 361.01 C 388.91 362.18 388.78 363.52 388.99 364.83 C 389.07 366.26 388.99 367.68 388.74 369.10 L 388.20 369.07 C 388.46 360.95 373.42 361.99 374.06 370.02 C 367.04 402.32 366.52 435.80 368.41 468.68 C 371.01 483.54 364.36 497.65 362.13 512.09 C 361.00 517.15 360.95 523.12 356.16 526.23 C 355.76 477.54 355.33 428.64 361.21 380.22 C 362.80 375.82 361.82 367.38 369.65 369.55 C 373.39 362.00 374.38 353.38 377.70 345.73 Z" />
<path fill="#bac898" d=" M 391.20 344.90 L 391.73 345.07 C 392.58 345.97 392.72 348.89 391.06 348.77 C 390.97 347.47 391.01 346.18 391.20 344.90 Z" />
<path fill="#bdd29f" d=" M 346.52 352.98 C 345.46 351.84 344.99 348.36 346.98 348.18 C 347.16 349.79 347.14 351.45 346.52 352.98 Z" />
<path fill="#61942a" d=" M 358.79 361.68 C 360.83 358.72 361.77 355.21 362.79 351.82 C 362.88 352.41 363.06 353.60 363.15 354.19 C 362.15 362.83 360.74 371.49 361.21 380.22 C 355.33 428.64 355.76 477.54 356.16 526.23 C 357.71 532.48 354.54 537.55 350.71 541.92 C 348.81 541.81 346.91 541.80 345.02 542.02 C 348.26 536.74 348.82 530.24 346.11 524.54 C 343.57 513.03 340.14 501.74 335.62 490.86 C 335.34 489.97 335.07 489.09 334.79 488.21 C 334.95 487.64 335.26 486.50 335.41 485.93 C 336.08 483.70 336.28 481.47 336.03 479.23 C 335.86 476.20 335.90 473.23 336.25 470.25 C 336.69 466.82 337.09 463.43 337.04 459.98 C 337.11 458.30 337.23 454.94 337.29 453.26 C 337.59 450.14 338.00 447.10 338.05 443.99 C 338.16 442.22 338.37 438.67 338.48 436.90 C 339.07 434.67 339.26 432.45 339.03 430.23 C 338.84 428.11 339.01 425.97 339.44 423.90 C 340.08 421.68 340.28 419.45 340.03 417.23 C 339.60 411.40 340.06 405.57 341.54 399.93 C 341.67 398.50 341.92 395.63 342.04 394.20 C 342.02 392.74 342.16 391.31 342.48 389.91 C 342.63 388.48 342.92 385.62 343.06 384.19 C 342.40 379.35 343.37 374.62 344.54 369.97 C 345.07 368.50 345.18 366.93 345.09 365.38 C 348.34 364.83 345.80 361.07 346.07 358.92 C 350.34 359.73 354.40 361.41 358.79 361.68 Z" />
<path fill="#aec088" d=" M 390.00 356.83 C 389.77 355.52 389.91 354.18 390.55 353.01 C 391.65 353.85 391.82 356.98 390.00 356.83 Z" />
<path fill="#aabd86" d=" M 388.99 364.83 C 388.78 363.52 388.91 362.18 389.55 361.01 C 390.65 361.85 390.82 364.98 388.99 364.83 Z" />
<path fill="#4e780e" d=" M 374.06 370.02 C 373.42 361.99 388.46 360.95 388.20 369.07 C 387.97 370.96 387.94 372.88 388.08 374.79 C 388.11 376.54 388.10 378.35 387.52 380.04 C 386.88 381.55 386.80 383.20 387.02 384.81 C 386.73 394.24 386.11 403.73 384.50 413.03 C 383.90 414.55 383.78 416.19 384.01 417.81 C 384.36 426.14 383.57 434.46 382.71 442.74 C 382.28 446.52 382.05 450.33 382.02 454.17 C 382.03 455.82 382.06 459.13 382.07 460.78 C 382.05 463.52 382.04 466.27 382.04 469.04 C 382.03 470.72 382.10 472.40 382.17 474.09 C 376.63 492.99 373.39 512.47 369.65 531.78 C 368.90 535.46 368.08 539.20 368.08 542.99 C 362.72 546.04 361.29 553.13 365.05 558.04 C 364.34 568.63 361.45 578.99 361.18 589.64 C 360.61 591.16 360.04 592.69 359.54 594.24 C 355.89 582.81 359.96 569.45 352.54 559.08 C 353.77 557.76 355.02 556.45 356.20 555.08 C 358.17 553.09 358.36 549.61 356.29 547.82 C 355.26 545.38 353.30 543.57 350.92 542.50 L 350.71 541.92 C 354.54 537.55 357.71 532.48 356.16 526.23 C 360.95 523.12 361.00 517.15 362.13 512.09 C 364.36 497.65 371.01 483.54 368.41 468.68 C 366.52 435.80 367.04 402.32 374.06 370.02 Z" />
<path fill="#abc689" d=" M 344.54 369.97 C 343.39 368.94 342.98 365.18 345.09 365.38 C 345.18 366.93 345.07 368.50 344.54 369.97 Z" />
<path fill="#a1b67b" d=" M 388.20 369.07 L 388.74 369.10 C 389.47 370.65 389.86 374.05 388.08 374.79 C 387.94 372.88 387.97 370.96 388.20 369.07 Z" />
<path fill="#aed12f" d=" M 166.38 385.68 C 165.54 383.01 165.92 367.34 167.52 379.62 C 169.69 395.05 174.93 410.22 175.71 425.77 C 174.27 436.10 176.03 446.89 172.75 456.97 C 171.46 456.90 170.22 456.52 169.01 456.13 C 168.83 451.64 169.19 447.11 168.41 442.68 C 167.58 434.80 168.12 426.88 168.03 419.00 C 167.95 416.18 167.92 413.42 167.41 410.68 C 166.84 406.46 167.02 402.22 167.01 397.99 C 167.07 393.86 166.87 389.76 166.38 385.68 Z" />
<path fill="#b9c89f" d=" M 387.02 384.81 C 386.80 383.20 386.88 381.55 387.52 380.04 C 388.55 381.17 388.98 384.64 387.02 384.81 Z" />
<path fill="#b0ca95" d=" M 342.48 389.91 C 341.26 388.53 340.79 384.48 343.06 384.19 C 342.92 385.62 342.63 388.48 342.48 389.91 Z" />
<path fill="#d8e6b1" d=" M 166.38 385.68 C 166.87 389.76 167.07 393.86 167.01 397.99 C 164.36 396.24 166.48 389.33 166.38 385.68 Z" />
<path fill="#a6c287" d=" M 341.54 399.93 C 340.26 398.58 339.79 394.52 342.04 394.20 C 341.92 395.63 341.67 398.50 341.54 399.93 Z" />
<path fill="#bbd86b" d=" M 227.74 407.58 C 223.86 410.07 226.72 399.70 231.00 405.96 C 234.13 407.13 241.44 403.94 243.01 406.96 C 237.93 407.18 232.73 406.40 227.74 407.58 Z" />
<path fill="#a6d133" d=" M 227.74 407.58 C 232.73 406.40 237.93 407.18 243.01 406.96 C 265.22 407.53 287.82 419.41 301.66 435.96 C 298.90 438.72 295.82 441.21 293.42 444.32 C 293.24 447.90 293.79 451.47 294.07 455.05 C 278.79 431.92 255.16 413.61 227.74 407.58 Z" />
<path fill="#cade90" d=" M 167.41 410.68 C 167.92 413.42 167.95 416.18 168.03 419.00 C 165.67 418.09 167.45 413.12 167.41 410.68 Z" />
<path fill="#99b076" d=" M 384.01 417.81 C 383.78 416.19 383.90 414.55 384.50 413.03 C 385.55 414.16 385.99 417.65 384.01 417.81 Z" />
<path fill="#a8c58b" d=" M 339.44 423.90 C 338.49 422.13 337.72 417.92 340.03 417.23 C 340.28 419.45 340.08 421.68 339.44 423.90 Z" />
<path fill="#9bc72a" d=" M 172.75 456.97 C 176.03 446.89 174.27 436.10 175.71 425.77 C 177.81 431.88 178.60 438.46 179.63 444.76 C 176.76 457.04 179.70 470.04 175.00 481.99 C 174.44 484.14 172.10 484.90 170.15 485.21 C 169.92 483.69 169.65 482.19 169.35 480.70 C 168.72 474.14 169.02 467.56 168.99 461.00 C 169.01 459.37 169.00 457.75 169.01 456.13 C 170.22 456.52 171.46 456.90 172.75 456.97 Z" />
<path fill="#a4c185" d=" M 338.48 436.90 C 337.46 435.16 336.73 430.92 339.03 430.23 C 339.26 432.45 339.07 434.67 338.48 436.90 Z" />
<path fill="#9eca2e" d=" M 293.42 444.32 C 295.82 441.21 298.90 438.72 301.66 435.96 C 310.70 444.21 317.50 454.83 323.16 465.61 C 320.33 464.62 316.84 468.50 318.85 471.10 C 324.56 483.54 329.30 497.42 325.07 511.10 C 322.97 515.83 321.55 520.81 320.91 525.95 C 315.82 502.36 308.13 476.25 294.07 455.05 C 293.79 451.47 293.24 447.90 293.42 444.32 Z" />
<path fill="#d3e2b2" d=" M 168.41 442.68 C 169.19 447.11 168.83 451.64 169.01 456.13 C 169.00 457.75 169.01 459.37 168.99 461.00 C 166.85 456.80 167.96 448.53 168.41 442.68 Z" />
<path fill="#779748" d=" M 382.02 454.17 C 382.05 450.33 382.28 446.52 382.71 442.74 C 382.75 446.47 383.52 450.39 382.59 454.10 L 382.02 454.17 Z" />
<path fill="#97b974" d=" M 337.29 453.26 C 338.00 450.77 335.41 444.95 338.05 443.99 C 338.00 447.10 337.59 450.14 337.29 453.26 Z" />
<path fill="#8aba24" d=" M 175.00 481.99 C 179.70 470.04 176.76 457.04 179.63 444.76 C 180.74 452.06 182.71 459.30 182.73 466.71 C 180.28 475.81 182.58 485.54 179.65 494.48 C 175.80 507.07 179.62 520.32 178.89 533.20 C 179.27 525.10 174.56 520.33 170.11 514.82 C 169.85 510.53 169.97 506.26 169.98 502.00 C 170.05 496.39 170.06 490.79 170.15 485.21 C 172.10 484.90 174.44 484.14 175.00 481.99 Z" />
<path fill="#c6d2b1" d=" M 382.02 454.17 L 382.59 454.10 C 383.47 455.91 383.89 459.69 382.07 460.78 C 382.06 459.13 382.03 455.82 382.02 454.17 Z" />
<path fill="#a8c58b" d=" M 336.25 470.25 C 337.21 467.66 334.32 461.27 337.04 459.98 C 337.09 463.43 336.69 466.82 336.25 470.25 Z" />
<path fill="#92c027" d=" M 318.85 471.10 C 316.84 468.50 320.33 464.62 323.16 465.61 C 328.33 472.41 329.40 481.77 334.79 488.21 C 335.07 489.09 335.34 489.97 335.62 490.86 C 332.85 498.86 337.54 507.49 337.36 515.68 C 340.55 524.16 335.42 531.30 330.93 537.88 C 327.60 542.52 328.61 548.91 325.16 553.42 L 324.52 553.28 C 323.68 544.11 322.10 535.05 320.91 525.95 C 321.55 520.81 322.97 515.83 325.07 511.10 C 329.30 497.42 324.56 483.54 318.85 471.10 Z" />
<path fill="#80ae1b" d=" M 179.65 494.48 C 182.58 485.54 180.28 475.81 182.73 466.71 C 185.65 476.14 185.65 486.35 187.91 496.01 C 185.29 494.05 184.63 495.36 185.92 499.95 C 184.96 516.86 187.82 533.66 189.44 550.37 C 189.91 556.57 183.98 554.72 180.06 553.89 C 179.90 546.97 179.16 540.10 178.89 533.20 C 179.62 520.32 175.80 507.07 179.65 494.48 Z" />
<path fill="#d3d992" d=" M 382.04 469.04 C 382.72 469.00 384.07 468.91 384.75 468.87 C 384.27 470.46 383.63 472.00 383.04 473.56 L 382.17 474.09 C 382.10 472.40 382.03 470.72 382.04 469.04 Z" />
<path fill="#b0c894" d=" M 335.41 485.93 C 334.51 484.14 333.74 479.95 336.03 479.23 C 336.28 481.47 336.08 483.70 335.41 485.93 Z" />
<path fill="#c9dbac" d=" M 169.35 480.70 C 169.65 482.19 169.92 483.69 170.15 485.21 C 170.06 490.79 170.05 496.39 169.98 502.00 C 167.47 496.99 169.63 487.30 169.35 480.70 Z" />
<path fill="#82b320" d=" M 337.36 515.68 C 337.54 507.49 332.85 498.86 335.62 490.86 C 340.14 501.74 343.57 513.03 346.11 524.54 C 343.21 533.03 336.79 539.43 333.60 547.65 C 327.59 561.44 345.40 569.32 341.01 582.98 C 331.80 604.19 326.20 628.61 334.98 651.03 C 334.53 650.94 333.63 650.75 333.18 650.66 C 331.15 649.85 328.01 649.64 329.13 645.93 C 327.68 638.70 323.32 631.62 324.80 624.11 C 324.93 621.47 325.10 618.85 325.30 616.26 C 326.39 600.45 326.48 584.48 325.42 568.69 C 324.99 565.04 324.86 561.42 324.93 557.77 C 325.03 556.32 325.10 554.87 325.16 553.42 C 328.61 548.91 327.60 542.52 330.93 537.88 C 335.42 531.30 340.55 524.16 337.36 515.68 Z" />
<path fill="#709f14" d=" M 185.92 499.95 C 184.63 495.36 185.29 494.05 187.91 496.01 C 188.84 507.11 191.17 518.06 191.99 529.17 C 191.80 530.46 191.91 531.81 192.55 532.99 C 193.02 534.33 193.17 535.72 193.00 537.17 C 192.78 538.46 192.94 539.79 193.52 540.99 C 194.17 543.72 194.52 546.70 194.62 549.56 C 189.85 554.25 192.68 562.09 189.83 567.76 C 186.80 569.39 182.57 568.33 180.94 572.11 C 180.45 569.74 180.01 567.35 179.91 564.93 C 179.95 561.21 180.01 557.57 180.06 553.89 C 183.98 554.72 189.91 556.57 189.44 550.37 C 187.82 533.66 184.96 516.86 185.92 499.95 Z" />
<path fill="#e0e7ad" d=" M 405.99 515.00 C 405.93 511.91 406.29 508.77 406.72 505.74 C 405.95 508.16 408.56 514.01 405.99 515.00 Z" />
<path fill="#7cb735" d=" M 170.11 514.82 C 174.56 520.33 179.27 525.10 178.89 533.20 C 179.16 540.10 179.90 546.97 180.06 553.89 C 180.01 557.57 179.95 561.21 179.91 564.93 C 177.98 568.67 172.54 567.87 171.05 572.14 C 170.98 565.08 170.97 558.04 171.00 551.00 C 170.68 542.57 171.91 534.01 170.40 525.68 C 169.87 522.06 169.92 518.44 170.11 514.82 Z" />
<path fill="#dfe6ae" d=" M 404.91 524.92 C 405.12 523.50 405.38 522.10 405.67 520.70 C 406.53 525.39 406.31 529.16 405.00 532.00 C 404.98 530.23 404.93 526.69 404.91 524.92 Z" />
<path fill="#77a81a" d=" M 333.60 547.65 C 336.79 539.43 343.21 533.03 346.11 524.54 C 348.82 530.24 348.26 536.74 345.02 542.02 L 344.80 542.51 C 340.09 544.66 338.23 549.65 338.60 554.67 C 337.99 563.39 350.36 565.51 349.42 574.58 C 352.12 601.26 350.72 628.37 352.94 654.93 C 346.92 653.76 340.93 652.49 334.98 651.03 C 326.20 628.61 331.80 604.19 341.01 582.98 C 345.40 569.32 327.59 561.44 333.60 547.65 Z" />
<path fill="#9dbd22" d=" M 396.10 529.16 C 399.03 527.73 402.48 527.30 404.91 524.92 C 404.93 526.69 404.98 530.23 405.00 532.00 C 404.95 537.22 405.30 542.51 404.74 547.74 C 404.28 551.72 404.08 555.73 403.86 559.75 C 391.13 572.09 390.40 590.52 386.69 606.67 C 386.24 612.06 379.28 608.81 376.20 612.09 C 369.87 614.87 367.78 607.15 364.67 603.30 C 361.37 599.50 361.81 594.31 361.18 589.64 C 361.45 578.99 364.34 568.63 365.05 558.04 C 369.41 562.57 378.00 561.26 380.04 555.04 C 384.11 547.99 374.86 540.76 368.08 542.99 C 368.08 539.20 368.90 535.46 369.65 531.78 C 376.74 534.53 384.10 536.69 389.82 542.19 C 392.08 537.92 393.71 533.35 396.10 529.16 Z" />
<path fill="#caddb0" d=" M 170.40 525.68 C 171.91 534.01 170.68 542.57 171.00 551.00 C 169.08 544.39 169.73 533.97 170.40 525.68 Z" />
<path fill="#b1c880" d=" M 191.99 529.17 C 193.82 529.00 193.66 532.13 192.55 532.99 C 191.91 531.81 191.80 530.46 191.99 529.17 Z" />
<path fill="#a8c831" d=" M 131.95 534.89 C 147.53 544.58 159.01 561.23 165.76 577.76 C 163.72 580.03 160.17 581.85 162.16 585.85 C 166.67 594.83 171.32 604.51 170.93 614.79 C 168.50 616.26 165.76 617.11 163.13 618.17 C 157.82 589.13 151.98 557.97 131.95 534.89 Z" />
<path fill="#b3c984" d=" M 193.00 537.17 C 194.84 537.00 194.65 540.16 193.52 540.99 C 192.94 539.79 192.78 538.46 193.00 537.17 Z" />
<path fill="#c1d2a6" d=" M 345.02 542.02 C 346.91 541.80 348.81 541.81 350.71 541.92 L 350.92 542.50 C 348.96 543.36 346.77 543.25 344.80 542.51 L 345.02 542.02 Z" />
<path fill="#fafcf8" d=" M 338.60 554.67 C 338.23 549.65 340.09 544.66 344.80 542.51 C 346.77 543.25 348.96 543.36 350.92 542.50 C 353.30 543.57 355.26 545.38 356.29 547.82 C 356.27 549.63 356.22 553.27 356.20 555.08 C 355.02 556.45 353.77 557.76 352.54 559.08 C 347.02 561.65 341.82 559.24 338.60 554.67 Z" />
<path fill="#fafbf6" d=" M 368.08 542.99 C 374.86 540.76 384.11 547.99 380.04 555.04 C 378.00 561.26 369.41 562.57 365.05 558.04 C 361.29 553.13 362.72 546.04 368.08 542.99 Z" />
<path fill="#b8c7a5" d=" M 356.29 547.82 C 358.36 549.61 358.17 553.09 356.20 555.08 C 356.22 553.27 356.27 549.63 356.29 547.82 Z" />
<path fill="#d3de9f" d=" M 403.86 559.75 C 404.08 555.73 404.28 551.72 404.74 547.74 C 404.94 561.56 405.50 575.45 404.70 589.27 C 403.52 579.46 404.18 569.59 403.86 559.75 Z" />
<path fill="#598a0e" d=" M 189.83 567.76 C 192.68 562.09 189.85 554.25 194.62 549.56 C 195.03 554.44 195.92 559.31 196.07 564.22 C 195.96 565.32 195.89 566.43 195.86 567.55 C 190.04 572.06 195.73 584.55 187.11 587.13 C 183.54 587.72 183.10 591.51 182.01 594.33 C 180.60 587.00 181.03 579.51 180.94 572.11 C 182.57 568.33 186.80 569.39 189.83 567.76 Z" />
<path fill="#c6de93" d=" M 324.52 553.28 L 325.16 553.42 C 325.10 554.87 325.03 556.32 324.93 557.77 C 323.27 557.49 323.33 554.23 324.52 553.28 Z" />
<path fill="#689517" d=" M 349.42 574.58 C 350.36 565.51 337.99 563.39 338.60 554.67 C 341.82 559.24 347.02 561.65 352.54 559.08 C 359.96 569.45 355.89 582.81 359.54 594.24 C 359.52 602.89 362.14 611.27 362.04 619.91 C 362.87 630.25 362.82 640.78 364.87 650.97 C 361.26 650.05 362.05 653.66 361.83 656.06 C 360.30 656.07 358.78 655.96 357.29 655.70 C 355.84 655.42 354.38 655.18 352.94 654.93 C 350.72 628.37 352.12 601.26 349.42 574.58 Z" />
<path fill="#92b41b" d=" M 386.69 606.67 C 390.40 590.52 391.13 572.09 403.86 559.75 C 404.18 569.59 403.52 579.46 404.70 589.27 C 405.01 593.15 405.09 597.05 404.95 600.97 C 400.88 598.84 398.00 603.59 394.17 604.27 C 391.36 604.87 391.11 608.13 390.51 610.44 C 388.59 623.86 388.14 637.48 388.08 651.03 L 387.26 651.23 C 384.24 651.13 381.29 651.08 378.31 651.15 C 376.56 651.09 374.83 651.01 373.10 650.96 C 370.78 640.21 372.49 626.69 362.04 619.91 C 362.14 611.27 359.52 602.89 359.54 594.24 C 360.04 592.69 360.61 591.16 361.18 589.64 C 361.81 594.31 361.37 599.50 364.67 603.30 C 367.78 607.15 369.87 614.87 376.20 612.09 C 379.28 608.81 386.24 612.06 386.69 606.67 Z" />
<path fill="#a3bc6f" d=" M 196.07 564.22 C 197.64 564.09 197.74 567.01 196.57 567.69 L 195.86 567.55 C 195.89 566.43 195.96 565.32 196.07 564.22 Z" />
<path fill="#5ca033" d=" M 171.05 572.14 C 172.54 567.87 177.98 568.67 179.91 564.93 C 180.01 567.35 180.45 569.74 180.94 572.11 C 181.03 579.51 180.60 587.00 182.01 594.33 C 180.85 604.95 183.55 615.82 182.14 626.29 C 181.65 625.89 180.67 625.09 180.18 624.69 C 179.86 621.95 179.72 619.32 179.15 616.68 C 178.11 605.73 172.11 595.83 172.08 584.88 C 171.93 583.43 171.63 580.54 171.48 579.09 C 171.37 577.35 171.16 573.88 171.05 572.14 Z" />
<path fill="#48760a" d=" M 187.11 587.13 C 195.73 584.55 190.04 572.06 195.86 567.55 L 196.57 567.69 C 197.15 569.79 197.11 572.01 197.01 574.19 C 196.77 575.79 196.93 577.42 197.49 578.95 C 197.72 585.04 199.23 591.08 199.00 597.20 C 198.77 598.60 199.00 600.10 200.04 601.16 C 198.27 604.55 195.61 607.40 193.75 610.75 C 191.27 614.75 190.32 619.40 188.93 623.84 C 188.22 624.86 187.47 625.85 186.83 626.92 C 186.23 631.83 185.63 636.75 183.99 641.45 C 183.51 638.26 183.01 635.17 182.90 631.98 C 183.45 630.30 183.34 628.46 182.32 627.00 L 182.14 626.29 C 183.55 615.82 180.85 604.95 182.01 594.33 C 183.10 591.51 183.54 587.72 187.11 587.13 Z" />
<path fill="#dae9bc" d=" M 325.42 568.69 C 326.48 584.48 326.39 600.45 325.30 616.26 C 324.87 600.41 324.65 584.52 325.42 568.69 Z" />
<path fill="#9bb66c" d=" M 197.01 574.19 C 198.99 574.33 198.57 577.83 197.49 578.95 C 196.93 577.42 196.77 575.79 197.01 574.19 Z" />
<path fill="#9abe28" d=" M 162.16 585.85 C 160.17 581.85 163.72 580.03 165.76 577.76 C 167.94 579.50 169.21 589.77 171.53 585.09 L 172.08 584.88 C 172.11 595.83 178.11 605.73 179.15 616.68 C 173.60 621.50 163.99 626.58 167.58 635.39 C 168.98 640.40 178.93 640.52 176.45 646.37 C 174.98 650.81 169.24 648.11 165.79 649.66 C 164.72 640.94 163.79 628.42 163.13 618.17 C 165.76 617.11 168.50 616.26 170.93 614.79 C 171.32 604.51 166.67 594.83 162.16 585.85 Z" />
<path fill="#aece93" d=" M 171.48 579.09 C 171.63 580.54 171.93 583.43 172.08 584.88 L 171.53 585.09 C 170.07 583.53 170.25 580.72 171.48 579.09 Z" />
<path fill="#d5e081" d=" M 228.02 587.97 C 231.32 586.14 234.64 586.14 238.00 587.98 C 234.65 587.98 231.35 588.03 228.02 587.97 Z" />
<path fill="#b3c92d" d=" M 200.04 601.16 C 207.27 593.57 217.49 588.41 228.02 587.97 C 231.35 588.03 234.65 587.98 238.00 587.98 C 239.40 588.45 243.02 586.91 242.94 588.88 C 232.56 588.64 221.76 593.27 216.58 602.59 C 210.02 610.05 209.43 622.28 206.00 630.00 C 204.00 623.60 198.86 620.23 193.10 617.75 C 193.05 615.39 193.50 613.07 193.75 610.75 C 195.61 607.40 198.27 604.55 200.04 601.16 Z" />
<path fill="#b4c88b" d=" M 199.00 597.20 C 200.70 597.18 200.63 600.03 200.04 601.16 C 199.00 600.10 198.77 598.60 199.00 597.20 Z" />
<path fill="#84a117" d=" M 394.17 604.27 C 398.00 603.59 400.88 598.84 404.95 600.97 C 404.96 601.48 404.98 602.49 404.99 602.99 C 404.93 606.40 404.83 609.94 405.59 613.32 C 405.69 614.99 405.88 618.32 405.97 619.99 C 405.98 623.06 405.86 626.27 406.62 629.31 C 406.89 630.58 407.02 631.87 407.00 633.19 C 406.70 635.47 406.84 637.72 407.43 639.96 C 408.00 644.63 412.76 654.68 403.08 651.01 C 398.06 650.96 393.08 650.93 388.08 651.03 C 388.14 637.48 388.59 623.86 390.51 610.44 C 391.11 608.13 391.36 604.87 394.17 604.27 Z" />
<path fill="#ced9a0" d=" M 404.99 602.99 C 407.92 603.84 405.42 610.46 405.59 613.32 C 404.83 609.94 404.93 606.40 404.99 602.99 Z" />
<path fill="#a1cb2d" d=" M 318.40 615.68 C 318.91 599.09 319.40 626.17 324.80 624.11 C 323.32 631.62 327.68 638.70 329.13 645.93 C 328.01 649.64 331.15 649.85 333.18 650.66 C 330.21 650.36 331.05 653.39 331.58 655.20 C 331.84 657.53 334.76 662.41 330.30 660.73 C 326.84 659.25 317.26 661.60 318.97 655.01 C 318.55 641.92 319.96 628.69 318.40 615.68 Z" />
<path fill="#a0bd25" d=" M 188.93 623.84 C 190.32 619.40 191.27 614.75 193.75 610.75 C 193.50 613.07 193.05 615.39 193.10 617.75 C 198.86 620.23 204.00 623.60 206.00 630.00 C 206.41 636.30 205.06 642.51 204.84 648.79 C 194.41 648.95 198.06 661.95 195.79 668.75 C 192.57 671.28 187.99 671.03 184.08 671.88 C 183.97 661.73 183.40 651.60 183.99 641.45 C 185.63 636.75 186.23 631.83 186.83 626.92 C 183.10 634.46 195.48 638.29 197.42 631.38 C 200.05 626.79 193.11 621.35 188.93 623.84 Z" />
<path fill="#c4dd7f" d=" M 318.40 615.68 C 319.96 628.69 318.55 641.92 318.97 655.01 C 317.13 643.74 317.81 628.50 318.40 615.68 Z" />
<path fill="#88af1a" d=" M 167.58 635.39 C 163.99 626.58 173.60 621.50 179.15 616.68 C 179.72 619.32 179.86 621.95 180.18 624.69 C 173.57 620.50 167.70 630.38 173.75 634.25 C 176.59 637.56 180.18 634.67 182.29 632.13 L 182.90 631.98 C 183.01 635.17 183.51 638.26 183.99 641.45 C 183.40 651.60 183.97 661.73 184.08 671.88 C 187.99 671.03 192.57 671.28 195.79 668.75 C 198.06 661.95 194.41 648.95 204.84 648.79 C 205.00 652.07 205.23 655.50 204.85 658.81 C 193.94 659.65 198.88 675.53 198.95 682.78 C 194.44 681.75 187.84 687.08 184.40 683.76 C 184.26 683.34 183.99 682.50 183.85 682.08 C 180.43 678.07 172.77 680.65 168.14 678.85 C 167.22 676.35 166.43 673.82 165.66 671.28 C 165.96 664.06 166.20 656.86 165.79 649.66 C 169.24 648.11 174.98 650.81 176.45 646.37 C 178.93 640.52 168.98 640.40 167.58 635.39 Z" />
<path fill="#84a817" d=" M 362.04 619.91 C 372.49 626.69 370.78 640.21 373.10 650.96 C 370.35 650.95 367.60 650.95 364.87 650.97 C 362.82 640.78 362.87 630.25 362.04 619.91 Z" />
<path fill="#c6d292" d=" M 405.97 619.99 C 409.27 620.11 406.29 626.86 406.62 629.31 C 405.86 626.27 405.98 623.06 405.97 619.99 Z" />
<path fill="#f8faf1" d=" M 188.93 623.84 C 193.11 621.35 200.05 626.79 197.42 631.38 C 195.48 638.29 183.10 634.46 186.83 626.92 C 187.47 625.85 188.22 624.86 188.93 623.84 Z" />
<path fill="#f7f9f2" d=" M 173.75 634.25 C 167.70 630.38 173.57 620.50 180.18 624.69 C 180.67 625.09 181.65 625.89 182.14 626.29 L 182.32 627.00 C 181.80 628.65 181.61 630.46 182.29 632.13 C 180.18 634.67 176.59 637.56 173.75 634.25 Z" />
<path fill="#a9d03e" d=" M 428.41 624.41 C 429.85 622.85 428.59 626.68 428.37 627.36 C 424.37 637.68 421.54 648.40 417.63 658.76 C 414.76 659.26 411.95 660.02 409.03 660.08 C 414.85 647.86 422.22 636.44 428.41 624.41 Z" />
<path fill="#a8c397" d=" M 182.32 627.00 C 183.34 628.46 183.45 630.30 182.90 631.98 L 182.29 632.13 C 181.61 630.46 181.80 628.65 182.32 627.00 Z" />
<path fill="#aed349" d=" M 287.96 632.87 C 292.31 636.88 295.62 641.96 299.74 646.25 C 301.73 647.93 302.29 652.80 296.14 648.97 C 293.75 643.45 289.59 638.66 287.96 632.87 Z" />
<path fill="#cdd7a3" d=" M 407.00 633.19 C 409.19 634.07 408.56 638.20 407.43 639.96 C 406.84 637.72 406.70 635.47 407.00 633.19 Z" />
<path fill="#a9d03d" d=" M 447.39 639.38 C 447.70 641.67 443.43 655.28 435.86 650.95 C 439.53 646.95 443.17 642.82 447.39 639.38 Z" />
<path fill="#a3cc32" d=" M 157.01 648.93 C 160.36 656.18 162.32 664.01 165.66 671.28 C 166.43 673.82 167.22 676.35 168.14 678.85 C 168.35 679.41 168.76 680.52 168.97 681.07 C 169.16 681.59 169.55 682.62 169.74 683.14 C 171.63 686.41 159.05 686.65 159.97 681.95 C 159.66 679.00 159.34 675.97 159.08 673.05 C 158.61 664.99 156.93 657.02 157.01 648.93 Z" />
<path fill="#aaada6" d=" M 331.58 655.20 C 331.05 653.39 330.21 650.36 333.18 650.66 C 333.63 650.75 334.53 650.94 334.98 651.03 C 340.93 652.49 346.92 653.76 352.94 654.93 C 354.38 655.18 355.84 655.42 357.29 655.70 C 348.71 656.44 340.14 655.80 331.58 655.20 Z" />
<path fill="#6f726a" d=" M 361.83 656.06 C 362.05 653.66 361.26 650.05 364.87 650.97 C 367.60 650.95 370.35 650.95 373.10 650.96 C 374.83 651.01 376.56 651.09 378.31 651.15 C 374.18 654.95 367.41 651.89 363.11 655.06 L 362.46 655.57 L 361.83 656.06 Z" />
<path fill="#969794" d=" M 378.31 651.15 C 381.29 651.08 384.24 651.13 387.26 651.23 C 380.47 656.19 370.83 653.50 363.11 655.06 C 367.41 651.89 374.18 654.95 378.31 651.15 Z" />
<path fill="#babab5" d=" M 387.26 651.23 L 388.08 651.03 C 393.08 650.93 398.06 650.96 403.08 651.01 C 390.99 655.56 375.64 656.31 362.46 655.57 L 363.11 655.06 C 370.83 653.50 380.47 656.19 387.26 651.23 Z" />
<path fill="#a8cf3b" d=" M 219.84 678.21 C 223.81 671.23 224.81 662.41 229.04 655.87 C 228.56 664.28 225.84 672.37 224.74 680.71 C 222.85 681.09 217.99 683.79 219.00 679.98 C 219.21 679.54 219.63 678.65 219.84 678.21 Z" />
<path fill="#7d9a1f" d=" M 198.95 682.78 C 198.88 675.53 193.94 659.65 204.85 658.81 C 205.09 663.64 205.50 668.50 206.59 673.24 C 208.22 677.55 208.40 681.64 202.73 681.78 C 201.48 682.13 200.22 682.49 198.95 682.78 Z" />
<path fill="#acd245" d=" M 242.33 664.36 C 242.78 665.42 241.91 676.59 235.90 673.98 C 236.99 670.28 239.74 667.13 242.33 664.36 Z" />
<path fill="#afd34c" d=" M 139.81 668.05 C 142.41 669.95 153.63 678.16 145.18 677.98 C 143.39 674.66 141.41 671.46 139.81 668.05 Z" />
<path fill="#cbcbc8" d=" M 152.05 676.18 C 154.12 674.59 156.65 673.86 159.08 673.05 C 159.34 675.97 159.66 679.00 159.97 681.95 C 157.12 680.71 152.08 680.02 152.05 676.18 Z" />
<path fill="#c6c6c5" d=" M 206.59 673.24 C 211.33 673.63 216.23 674.93 219.84 678.21 C 219.63 678.65 219.21 679.54 219.00 679.98 C 213.52 680.23 208.24 681.97 202.73 681.78 C 208.40 681.64 208.22 677.55 206.59 673.24 Z" />
<path fill="#6e7265" d=" M 168.14 678.85 C 172.77 680.65 180.43 678.07 183.85 682.08 C 178.89 681.79 173.79 682.50 168.97 681.07 C 168.76 680.52 168.35 679.41 168.14 678.85 Z" />
<path fill="#a3a4a1" d=" M 168.97 681.07 C 173.79 682.50 178.89 681.79 183.85 682.08 C 183.99 682.50 184.26 683.34 184.40 683.76 C 179.40 685.11 174.69 682.85 169.74 683.14 C 169.55 682.62 169.16 681.59 168.97 681.07 Z" />
</svg>
